<?xml version="1.0" encoding="UTF-8"?>
<svg version="1.1" xmlns="http://www.w3.org/2000/svg" width="900" height="900">
<path d="M0 0 C3.35393837 0.0897144 6.67388942 0.57806424 10 1 C11.41732422 1.15082031 11.41732422 1.15082031 12.86328125 1.3046875 C18.65012622 2.08907312 22.24614967 3.2467134 26.3671875 7.46484375 C31.14417911 11.95613012 35.98275888 12.74957584 42.25 13.625 C50.89005474 14.89005474 50.89005474 14.89005474 52 16 C52.14503454 17.47763285 52.22709659 18.96156681 52.28125 20.4453125 C52.31863281 21.35796875 52.35601562 22.270625 52.39453125 23.2109375 C52.42933594 24.17257813 52.46414063 25.13421875 52.5 26.125 C52.73861248 33.62208843 52.73861248 33.62208843 53.609375 41.0625 C54 44 54 44 52.75 45.875 C51 47 51 47 48 48 C46.96259118 51.25374924 46.96259118 51.25374924 46.3125 55.0625 C46.06113281 56.35285156 45.80976563 57.64320312 45.55078125 58.97265625 C45.36902344 59.97167969 45.18726563 60.97070312 45 62 C46.95292969 61.84337891 46.95292969 61.84337891 48.9453125 61.68359375 C50.67175859 61.59914802 52.39833066 61.51725086 54.125 61.4375 C54.9809375 61.36208984 55.836875 61.28667969 56.71875 61.20898438 C60.42202224 61.08079418 62.95337198 61.04819297 65.77587891 63.61499023 C69.95362384 69.54363276 72.49211799 76.47240504 75.125 83.1875 C79.7950997 95.22778157 79.7950997 95.22778157 88.25 104.75 C91.35578068 107.78059419 92.57343705 109.62535025 92.6875 114 C92.45808064 118.68331933 90.70660948 122.68085965 89 127 C89.589021 127.0501123 90.17804199 127.10022461 90.78491211 127.15185547 C93.50301913 127.38668458 96.22022028 127.63079109 98.9375 127.875 C99.86369141 127.95363281 100.78988281 128.03226563 101.74414062 128.11328125 C118.52776526 129.64441894 118.52776526 129.64441894 123.125 134.4375 C127.41967921 138.56073493 131.3696862 140.12322873 137 142 C136.65066406 141.04738281 136.30132812 140.09476563 135.94140625 139.11328125 C135.48158334 137.84642221 135.02195838 136.5794913 134.5625 135.3125 C134.33240234 134.68666016 134.10230469 134.06082031 133.86523438 133.41601562 C131.77272259 127.62370041 130.96751028 122.98059195 130.96337891 116.81933594 C131.07454244 109.83998669 131.07454244 109.83998669 128.26171875 103.73046875 C126.18979866 102.21784334 126.18979866 102.21784334 124.0078125 101.203125 C119.6538482 98.59413472 118.3074308 93.53424538 116.75 88.9375 C116.39421875 87.91527344 116.0384375 86.89304687 115.671875 85.83984375 C115.00495634 83.02094919 115.00112739 81.67006333 116 79 C123.08331267 81.29077346 128.30687118 84.46424615 133.96875 89.29296875 C137.83889384 92.54537809 141.54939483 92.2884522 146.41015625 92.5 C147.25162704 92.54060547 148.09309784 92.58121094 148.96006775 92.62304688 C151.66069714 92.75293812 154.36155157 92.87693463 157.0625 93 C159.73842047 93.12361917 162.41425262 93.24860379 165.08995056 93.37695312 C166.75498604 93.45666558 168.42015469 93.53366189 170.08546448 93.60742188 C175.42450764 93.86094885 180.69245416 94.3647224 186 95 C185.83701416 94.28432861 185.67402832 93.56865723 185.50610352 92.83129883 C185.00807929 90.04519803 184.8858165 87.52537792 184.90234375 84.69921875 C184.90556641 83.72275391 184.90878906 82.74628906 184.91210938 81.74023438 C184.92048828 80.73283203 184.92886719 79.72542969 184.9375 78.6875 C184.94201172 77.66076172 184.94652344 76.63402344 184.95117188 75.57617188 C184.96291816 73.05072118 184.97934435 70.52539095 185 68 C188.21701789 66.97447161 190.49203706 67.061101 193.796875 67.671875 C194.74498047 67.84041992 195.69308594 68.00896484 196.66992188 68.18261719 C197.68634766 68.36985352 198.70277344 68.55708984 199.75 68.75 C212.12168836 70.93122382 224.52513971 72.54017592 237 74 C237.33 79.94 237.66 85.88 238 92 C245.05162654 95.56261717 251.30134699 96.92389999 259.125 97.75 C260.17042969 97.87503906 261.21585938 98.00007813 262.29296875 98.12890625 C267.5599199 98.73483868 272.69930553 99.15016132 278 99 C281.67323536 90.5202971 284.74956907 82.00378134 287.3125 73.125 C287.56660645 72.2585083 287.82071289 71.3920166 288.08251953 70.49926758 C289.44632178 65.64993539 290.34858392 60.97619417 290.80932617 55.96044922 C291.03928255 53.59610899 291.48494866 51.31773105 292 49 C292.97794324 44.34382249 293.54181328 39.73459608 294 35 C297.65646486 33.78117838 298.73314813 34.68446637 302.09094238 36.23220825 C305.11506489 37.44846086 308.13116585 37.69904065 311.359375 38.02734375 C312.73571779 38.1812771 314.11201876 38.33558474 315.48828125 38.49023438 C317.62946599 38.71786781 319.77102777 38.93960468 321.91357422 39.15405273 C324.00167144 39.36723543 326.08643256 39.60227505 328.171875 39.83984375 C329.4103418 39.96738037 330.64880859 40.09491699 331.92480469 40.22631836 C335 41 335 41 336.84667969 42.65112305 C338.3319618 45.67608055 338.79474246 48.40619993 339.28125 51.7421875 C339.38087036 52.38817902 339.48049072 53.03417053 339.58312988 53.69973755 C339.89976792 55.75667457 340.20149429 57.81535885 340.5 59.875 C340.79899611 61.92739818 341.10161874 63.97887101 341.41687012 66.02883911 C341.70363731 67.89389852 341.97623927 69.76111975 342.24804688 71.62841797 C343.6578304 77.94955775 346.10051994 81.52719798 351.1875 85.4375 C353.13264873 86.94853828 355.06926679 88.47058523 357 90 C357.6642247 90.43761154 358.3284494 90.87522308 359.01280212 91.32609558 C362.36159395 93.76467529 364.62786176 95.64782536 365.75083923 99.72819519 C366.04734257 103.04338348 366.10612581 106.28883086 366.0859375 109.6171875 C366.15072927 112.1054769 366.21584341 114.59375793 366.28125 117.08203125 C366.33624537 120.98130133 366.37503795 124.88023205 366.40332031 128.77978516 C366.44440407 132.56092386 366.54421107 136.33734073 366.6484375 140.1171875 C366.63734955 141.27370819 366.6262616 142.43022888 366.61483765 143.62179565 C366.80124359 150.13948091 366.80124359 150.13948091 370.26676941 155.44967651 C372.07429093 156.92727358 373.89535808 158.38846775 375.73010254 159.8321228 C378.88184778 162.84221324 379.22795121 165.10154165 379.4122467 169.34628296 C379.40124435 170.20911896 379.390242 171.07195496 379.37890625 171.9609375 C379.40677719 172.87332184 379.43464813 173.78570618 379.46336365 174.72573853 C379.54199062 177.60998399 379.55404674 180.48978051 379.5625 183.375 C379.61853705 186.27978744 379.6879561 189.18405399 379.75804138 192.08853149 C379.79626747 193.88794579 379.82342998 195.68763715 379.83827209 197.48739624 C379.84596115 198.298992 379.85365021 199.11058777 379.86157227 199.94677734 C379.86471939 200.65909515 379.86786652 201.37141296 379.87110901 202.10531616 C379.93568167 204.22556277 379.93568167 204.22556277 381 207 C381.72790267 214.94726518 380.94194511 221.03120418 377 228 C377.88816406 227.9278125 378.77632812 227.855625 379.69140625 227.78125 C391.79969588 226.90153572 403.86429568 226.89631693 416 227 C414.31648744 232.30784309 412.47347714 236.76292781 408.24511719 240.5871582 C405.21008183 243.44576544 403.23348645 245.68249343 402.49291992 249.86132812 C402.46198883 253.37509979 402.65864666 256.80947576 402.9375 260.3125 C403.01943289 261.64489613 403.09786185 262.97751156 403.1730957 264.31030273 C403.2972843 266.47616887 403.42605336 268.64123094 403.56938171 270.80592346 C403.96973104 276.90530614 404.16724025 282.99950192 404.328125 289.109375 C404.41626146 291.98190361 404.50793105 294.85429257 404.60134888 297.72665405 C404.65812091 299.59542517 404.70703795 301.4644539 404.74752808 303.33364868 C405.02513401 315.3462794 406.41108138 324.19572213 412 335 C412.65137939 336.49836957 413.28944184 338.002696 413.90625 339.515625 C417.10618703 347.05299564 420.57618305 354.08704871 425 361 C426.00501204 362.66364917 427.00494546 364.33037602 428 366 C429.52829631 368.5511718 431.06049942 371.09950757 432.60546875 373.640625 C433.38857422 374.93226563 433.38857422 374.93226563 434.1875 376.25 C434.65542969 377.01828125 435.12335937 377.7865625 435.60546875 378.578125 C439.31064847 385.0128909 441.37781461 391.30102491 443.3125 398.4375 C443.61446289 399.53336426 443.91642578 400.62922852 444.22753906 401.75830078 C447.01795285 411.93673685 449.68856126 422.14655312 452.30541992 432.37084961 C452.7866929 434.19258202 453.29109305 436.00830161 453.8137207 437.81860352 C455.41218334 443.37516412 456.43082182 448.40938905 456.6875 454.1875 C456.72383545 454.90019043 456.7601709 455.61288086 456.79760742 456.34716797 C456.96536867 460.0395403 457.00806497 463.70738688 456.9140625 467.40234375 C456.3650125 475.62226089 456.3650125 475.62226089 459.125 483.125 C461 486 461 486 460.5625 488.9375 C454.85590466 500.12242687 454.85590466 500.12242687 450 503 C450.57971225 506.91305771 452.39620827 509.08751131 455 512 C457.44619237 513.60676209 457.44619237 513.60676209 460.125 515 C466.17625943 518.68232431 469.58063267 523.21336094 473.65234375 528.83984375 C477.48684027 534.0014206 481.87585633 538.31326411 486.90234375 542.3046875 C490.21928885 545.04924402 492.74337089 548.18903496 495.3125 551.625 C495.75400391 552.19734375 496.19550781 552.7696875 496.65039062 553.359375 C498.57380167 555.89250441 499.98705345 557.96116034 501 561 C501.99 561.33 502.98 561.66 504 562 C504.72960937 562.76957031 505.45921875 563.53914062 506.2109375 564.33203125 C509.47095725 567.45050952 512.53459358 568.91704683 516.625 570.6875 C523.28310753 573.69128451 529.79399761 576.89516955 536.25 580.3125 C537.04744629 580.73297607 537.84489258 581.15345215 538.66650391 581.58666992 C549.15643673 587.15643673 549.15643673 587.15643673 551 589 C552.5872601 605.64168576 552.5872601 605.64168576 549.21484375 610.65234375 C547.77091488 611.85689111 546.30393139 613.03448125 544.8125 614.1796875 C542.39547775 616.60712795 542.21659625 618.24068366 542 621.625 C542.24785047 624.54723696 542.45117349 626.32939246 544.3203125 628.61328125 C546.15542497 629.99821133 546.15542497 629.99821133 548.3359375 631.29296875 C551.75620101 633.48454522 554.69981251 636.07712953 557.75 638.75 C558.96523533 639.80183412 560.18138558 640.8526121 561.3984375 641.90234375 C562.00010742 642.4216748 562.60177734 642.94100586 563.22167969 643.47607422 C565.4147197 645.35539269 567.62934068 647.20715896 569.85302734 649.05004883 C571.35044352 650.2921308 572.83936731 651.54442805 574.328125 652.796875 C575.90846845 654.09996521 577.51482618 655.37408234 579.171875 656.578125 C588.5177618 663.68099897 594.28012667 676.09212781 598 687 C598.31251709 687.89614014 598.62503418 688.79228027 598.94702148 689.71557617 C600.00164286 692.76345956 601.03402663 695.81820161 602.0625 698.875 C602.41376953 699.89980469 602.76503906 700.92460938 603.12695312 701.98046875 C606.16661921 711.02476821 608.01972749 719.89903238 609 729.375 C609.50355376 734.1867359 610.14016161 738.94179761 610.9609375 743.7109375 C612.06650885 750.20181047 612.87620342 756.70949113 613.625 763.25 C613.7590625 764.36890625 613.893125 765.4878125 614.03125 766.640625 C614.70500427 772.47066197 615.15744504 778.1315941 615 784 C614.16190796 784.20979492 614.16190796 784.20979492 613.30688477 784.42382812 C598.07732712 788.30681684 598.07732712 788.30681684 586 798 C581.91135639 800.04432181 576.30856889 799.74512069 572.01367188 798.35888672 C570.06618895 797.43083863 568.16006362 796.44022635 566.25 795.4375 C554.80010063 789.97594945 542.38887223 788.33935419 529.98925781 786.25952148 C529.17232452 786.12181839 528.35539124 785.9841153 527.51370239 785.84223938 C525.96847949 785.58462961 524.42218389 785.33334429 522.87472534 785.08952332 C516.32622249 784.01830742 512.07657982 782.24783768 506.875 778.1875 C500.33444044 773.32829559 493.53251115 770.14305051 485.8125 767.625 C481.70532973 766.1629826 478.90195834 763.58298302 475.76171875 760.62109375 C472.82382858 757.91771366 470.3962451 756.70394197 466.55078125 755.9296875 C465.70322266 755.75566406 464.85566406 755.58164062 463.98242188 755.40234375 C463.10134766 755.22832031 462.22027344 755.05429687 461.3125 754.875 C460.41982422 754.69324219 459.52714844 754.51148438 458.60742188 754.32421875 C456.40607343 753.87688591 454.20367051 753.4357236 452 753 C452.48578543 749.87709365 452.9986012 747.00419641 454 744 C454.09359744 742.42403111 454.13070107 740.84436943 454.1328125 739.265625 C454.13474609 738.31099365 454.13667969 737.3563623 454.13867188 736.37280273 C454.1319043 734.82701538 454.1319043 734.82701538 454.125 733.25 C454.12209961 731.64330444 454.12209961 731.64330444 454.11914062 730.00415039 C454.08111316 722.80375546 453.85336534 715.62860907 453.5 708.4375 C453.32480321 704.62533559 453.15897747 700.81287422 453 697 C452.9366748 695.53916992 452.9366748 695.53916992 452.87207031 694.04882812 C452.34826546 680.42990189 453.43472036 668.86046365 458 656 C458.35215576 654.98776367 458.35215576 654.98776367 458.71142578 653.95507812 C459.76771699 650.92866725 460.85217616 647.91686251 461.984375 644.91796875 C463.39733926 641.03930775 463.39733926 641.03930775 464 637 C462.4581888 634.80270795 462.4581888 634.80270795 460.125 632.875 C452.01096684 625.29345027 443.55777137 616.89231806 441.67578125 605.625 C441.34586182 603.7843396 441.34586182 603.7843396 441.00927734 601.90649414 C440.77934082 600.61735107 440.5494043 599.32820801 440.3125 598 C438.26799238 587.11007594 436.00819025 578.75314451 429 570 C428.3503125 568.9790625 427.700625 567.958125 427.03125 566.90625 C425.071919 564.10289949 423.36697178 562.43384788 420.625 560.4375 C418.02400335 558.52121802 415.66381076 556.67658988 413.328125 554.4296875 C409.42888823 551.15137596 405.03290289 550.54120901 400.125 549.6875 C398.80628906 549.43516602 398.80628906 549.43516602 397.4609375 549.17773438 C395.3098119 548.76855288 393.15703571 548.3765391 391 548 C391.19118408 547.46125244 391.38236816 546.92250488 391.5793457 546.36743164 C393.50776725 540.78395762 394.96542857 535.21264182 396.1875 529.4375 C397.0846875 525.2609375 397.0846875 525.2609375 398 521 C392.06 520.67 386.12 520.34 380 520 C379.67 519.34 379.34 518.68 379 518 C379.90878906 516.33517578 379.90878906 516.33517578 380.8359375 514.63671875 C383.6650558 509.24971748 384.05467 503.79730906 384.625 497.8125 C384.84011433 495.69336772 385.06125603 493.57483672 385.2890625 491.45703125 C385.42368896 490.0644812 385.42368896 490.0644812 385.56103516 488.64379883 C386 486 386 486 388 481 C397.405 480.505 397.405 480.505 407 480 C406.67 478.02 406.34 476.04 406 474 C396.43 474 386.86 474 377 474 C372.69731818 463.96040908 369.85704315 455.46866763 369.6875 444.5625 C369.64354426 438.93534948 369.64354426 438.93534948 367.671875 433.765625 C365.86791104 432.25419573 364.04763035 431.15476828 362 430 C360.70627444 428.90140247 359.43610029 427.77462588 358.1875 426.625 C355.20124703 423.99686634 352.13264939 421.51393007 349 419.0625 C347.32835609 417.71448228 345.66144195 416.36057186 344 415 C343.319375 414.45472656 342.63875 413.90945313 341.9375 413.34765625 C331.32231532 403.90955858 323.9193075 387.76497718 321 374 C321.08984375 371.73828125 321.08984375 371.73828125 322 370 C324.109375 368.69140625 324.109375 368.69140625 326.75 367.5625 C331.63522921 365.29759345 334.97215858 362.73660153 338.20703125 358.37109375 C342.30712147 355.23573064 349.09029582 356.66349219 354 357 C356.51821781 357.46471843 358.60196255 358.08646192 361 359 C360.83628906 358.30519531 360.67257812 357.61039062 360.50390625 356.89453125 C359.95904004 353.7647184 359.90261517 350.86201917 359.9375 347.6875 C359.94652344 346.61886719 359.95554687 345.55023438 359.96484375 344.44921875 C359.98224609 343.23685547 359.98224609 343.23685547 360 342 C359.01 342.495 359.01 342.495 358 343 C356.62451844 343.08308638 355.24514204 343.10736016 353.8671875 343.09765625 C353.06152344 343.09443359 352.25585938 343.09121094 351.42578125 343.08789062 C350.58402344 343.07951172 349.74226562 343.07113281 348.875 343.0625 C348.02550781 343.05798828 347.17601562 343.05347656 346.30078125 343.04882812 C344.20049091 343.03702874 342.1002367 343.01909306 340 343 C338.01939135 337.49755822 336.09806655 331.9769662 334.19921875 326.44580078 C333.35443775 324.01843127 332.49721702 321.59903355 331.62109375 319.18310547 C325.54412143 302.39306477 320.7942547 286.91906239 320.50268555 268.93579102 C320.48246338 267.81487061 320.46224121 266.6939502 320.44140625 265.5390625 C320.45216187 264.07267334 320.45216187 264.07267334 320.46313477 262.57666016 C319.8529292 259.18176848 318.72426216 258.06700297 316 256 C313.6160869 255.1059388 313.6160869 255.1059388 311.015625 254.734375 C309.61376953 254.48300781 309.61376953 254.48300781 308.18359375 254.2265625 C307.21550781 254.06929687 306.24742187 253.91203125 305.25 253.75 C304.26644531 253.57726562 303.28289063 253.40453125 302.26953125 253.2265625 C299.84879079 252.80352048 297.42467763 252.39985912 295 252 C294.67 246.06 294.34 240.12 294 234 C292.88109375 234.59296875 291.7621875 235.1859375 290.609375 235.796875 C283.91860221 238.76764099 276.82008081 239.71154945 269.64208984 240.86523438 C267.23958633 241.25167503 264.84051388 241.65555657 262.44140625 242.0625 C260.90381386 242.31871871 259.36605851 242.57396182 257.828125 242.828125 C256.76081146 243.00616669 256.76081146 243.00616669 255.67193604 243.18780518 C252.0792978 243.76158817 248.63905754 244.13255431 245 244 C245.0721875 244.680625 245.144375 245.36125 245.21875 246.0625 C246.04863794 254.73021853 246.09931313 263.30458414 246 272 C243.45614871 271.57602478 241.31892181 271.16702427 239.0234375 269.96484375 C234.95045017 268.022705 230.38385512 268.37101209 226 269 C222.72499513 270.65065506 220.61545477 272.96474429 218.734375 276.12890625 C217 278 217 278 214.296875 278.57421875 C213.12640625 278.61160156 211.9559375 278.64898437 210.75 278.6875 C210.09193359 278.71384521 209.43386719 278.74019043 208.75585938 278.76733398 C207.1676362 278.82704813 205.57901427 278.87655327 203.99023438 278.91894531 C200.34174768 279.01784289 196.69444209 279.14587015 193.046875 279.2734375 C185.3652208 279.53818667 177.68292618 279.77492558 170 280 C167.99669108 287.70932028 166.25256124 295.41651514 164.8125 303.25 C164.63525391 304.19746094 164.45800781 305.14492188 164.27539062 306.12109375 C163.84701543 308.41347991 163.42190848 310.70641653 163 313 C159.17431641 312.19970703 159.17431641 312.19970703 157.60546875 310.40234375 C156.03215448 308.71721647 156.03215448 308.71721647 153.42578125 309.00390625 C144.50399748 310.60467799 135.75879319 312.68381079 127 315 C127.875 309.25 127.875 309.25 129 307 C129.29427268 303.42326778 129.27800554 299.83742408 129.3125 296.25 C129.35600586 294.765 129.35600586 294.765 129.40039062 293.25 C129.45503168 286.96207553 128.74902165 283.97833425 125 279 C124.91796875 276.8359375 124.91796875 276.8359375 126 275 C128.30078125 273.2890625 128.30078125 273.2890625 131.3125 271.625 C132.92705078 270.72201172 132.92705078 270.72201172 134.57421875 269.80078125 C138.85496005 267.55058543 143.20051513 265.46118274 147.6015625 263.45703125 C150.42785147 262.03135588 150.42785147 262.03135588 152 258 C146.06 258 140.12 258 134 258 C131.58694885 248.64942681 131.81212284 239.58173539 132 230 C130.80503906 229.85304687 129.61007812 229.70609375 128.37890625 229.5546875 C118.31525594 228.18439008 110.82646618 226.63808159 103.30859375 219.36328125 C97.46633764 215.91328568 88.48809372 216.75912124 82 218 C78.86908626 219.21967865 76.06161234 220.8311223 73.1875 222.5625 C65.15724166 227.38973068 57.25727418 229.82774881 48.125 231.8125 C46.19974487 232.23184814 46.19974487 232.23184814 44.2355957 232.65966797 C40.49335383 233.45473695 36.74699992 234.2277253 33 235 C28.95137223 235.86688544 24.91201744 236.76829665 20.875 237.6875 C20.02309082 237.86579346 19.17118164 238.04408691 18.29345703 238.2277832 C13.78901712 239.24525997 10.65522702 239.97352898 8 244 C6.61233101 247.50124849 5.54673114 251.07173696 4.5 254.6875 C0.39512561 268.5859674 -3.80907669 277.80188276 -15.015625 287.17578125 C-17.02437567 289.02240834 -18.5423079 290.95448666 -20.1875 293.125 C-24.28179169 297.89709389 -29.15905022 299.42965586 -35.02050781 301.35058594 C-38.74269649 302.57172825 -42.43520154 303.87223434 -46.125 305.1875 C-46.88965576 305.45720612 -47.65431152 305.72691223 -48.44213867 306.00479126 C-53.45914202 307.84876569 -57.88841772 310.02717073 -62.44049072 312.8127594 C-74.19220743 319.83061262 -84.81141754 320.5239024 -98.25 320.5625 C-100.27222406 320.60034564 -102.29436979 320.64264522 -104.31640625 320.68945312 C-107.15571058 320.75515475 -109.99332827 320.81521013 -112.83331299 320.83827209 C-121.33355597 320.501288 -121.33355597 320.501288 -128.8046875 323.5234375 C-130.53163497 327.10149207 -131.31232691 330.75017471 -132.125 334.625 C-133.90698529 342.81397059 -133.90698529 342.81397059 -135 345 C-137.77108589 345.54755693 -140.48035951 345.97156126 -143.27734375 346.33203125 C-145.00592444 346.57571079 -146.73443792 346.81986746 -148.46289062 347.06445312 C-151.18706969 347.43946998 -153.91174599 347.80909826 -156.63793945 348.16918945 C-170.99477942 349.94533671 -170.99477942 349.94533671 -184 356 C-186.93333885 353.06666115 -186.46115407 349.81273792 -186.625 345.875 C-186.74875 343.27625 -186.8725 340.6775 -187 338 C-196.9 338.33 -206.8 338.66 -217 339 C-217.99 335.98875 -218.98 332.9775 -220 329.875 C-223.46606914 319.68993543 -228.03257592 310.95113612 -234 302 C-239.72510967 259.16969844 -239.72510967 259.16969844 -232 245 C-229.54552549 242.9409961 -226.8223539 241.49841831 -224 240 C-223.03449219 239.48058838 -222.06898438 238.96117676 -221.07421875 238.42602539 C-216.51532779 236.00985493 -211.92444677 233.65766654 -207.32763672 231.31469727 C-199.92309945 227.56213349 -199.92309945 227.56213349 -192.6953125 223.484375 C-178.17090865 215.0079267 -160.4280785 213.95083432 -144 212 C-144.28875 211.360625 -144.5775 210.72125 -144.875 210.0625 C-150.19782436 195.57258924 -148.58970235 180.67931854 -145 166 C-142.06271706 165.66465271 -139.12520182 165.33163987 -136.1875 165 C-135.35412109 164.90460938 -134.52074219 164.80921875 -133.66210938 164.7109375 C-132.45844727 164.57558594 -132.45844727 164.57558594 -131.23046875 164.4375 C-130.49207764 164.35371094 -129.75368652 164.26992187 -128.99291992 164.18359375 C-127 164 -127 164 -124 164 C-123.731875 163.195625 -123.46375 162.39125 -123.1875 161.5625 C-122.57043269 159.71129808 -121.95109194 157.86069445 -121.3046875 156.01953125 C-119.4121207 150.55100928 -117.97135965 145.03933787 -116.6484375 139.40625 C-116 137 -116 137 -115 136 C-112.92475593 135.90511226 -110.8468883 135.86670588 -108.76953125 135.8515625 C-106.80098081 135.79398513 -104.83243139 135.73626541 -102.86401367 135.67431641 C-101.50559965 135.64166145 -100.14664506 135.62644524 -98.7878418 135.62939453 C-94.31801988 135.62830367 -90.2560275 135.41364429 -86 134 C-83.75602667 131.38635956 -82.63067219 128.97594966 -81.34521484 125.7878418 C-79.82495751 122.63723954 -78.55013494 121.75759449 -75.64453125 119.91796875 C-72.56447461 117.44615551 -72.04777431 116.2988967 -71.41162109 112.31884766 C-71.25236526 108.47131155 -71.38157573 104.64141296 -71.56842041 100.79678345 C-71.76779533 96.63734851 -71.83465447 92.47572633 -71.91015625 88.3125 C-71.92773987 87.50053665 -71.94532349 86.6885733 -71.96343994 85.852005 C-72.07353606 79.41371993 -71.66781659 73.17496261 -70.625 66.8125 C-70.49826904 66.01948486 -70.37153809 65.22646973 -70.2409668 64.40942383 C-69.31367405 59.31367405 -69.31367405 59.31367405 -67 57 C-64.99112811 56.57003605 -62.96082515 56.23815679 -60.92578125 55.95703125 C-59.70052734 55.76947266 -58.47527344 55.58191406 -57.21289062 55.38867188 C-54.63451646 55.00779036 -52.05372185 54.64291372 -49.47070312 54.29492188 C-42.56810306 53.20769915 -37.9038943 52.3017356 -33.41259766 46.71923828 C-28.86220835 41.18107003 -21.54850749 38.19166637 -15.25 35.0625 C-14.56534668 34.71719238 -13.88069336 34.37188477 -13.17529297 34.01611328 C-9.8839355 32.36927426 -6.60583564 30.8169707 -3.18359375 29.4609375 C2.83693081 27.05165233 2.83693081 27.05165233 6.83984375 22.23144531 C8.20232527 17.88800656 8.70278512 13.52815607 9 9 C8.04287109 9.12568359 8.04287109 9.12568359 7.06640625 9.25390625 C6.24011719 9.35574219 5.41382813 9.45757812 4.5625 9.5625 C3.73878906 9.66691406 2.91507813 9.77132813 2.06640625 9.87890625 C1.04353516 9.93884766 1.04353516 9.93884766 0 10 C-1 9 -1 9 -1.1328125 7.1875 C-1.13023437 6.465625 -1.12765625 5.74375 -1.125 5 C-1.12757813 4.278125 -1.13015625 3.55625 -1.1328125 2.8125 C-1 1 -1 1 0 0 Z " fill="#1C86EE" transform="translate(257,20)"/>
<path d="M0 0 C1.17086655 -0.00021904 1.17086655 -0.00021904 2.36538696 -0.0004425 C4.95178991 0.00025553 7.53812131 0.00804282 10.12451172 0.01586914 C11.91527263 0.01773371 13.70603405 0.01915743 15.49679565 0.02015686 C20.21504113 0.02397898 24.93325592 0.03380668 29.65148926 0.04486084 C34.46410711 0.05508151 39.2767299 0.05965589 44.08935547 0.06469727 C53.53598355 0.07542921 62.98258883 0.09250199 72.42919922 0.11352539 C71.84754252 3.62961017 70.64155411 5.26544842 68.12207031 7.74536133 C67.42399261 8.43998474 66.72591492 9.13460815 66.00668335 9.85028076 C65.24634796 10.59199524 64.48601257 11.33370972 63.70263672 12.09790039 C62.53107529 13.25953705 62.53107529 13.25953705 61.33584595 14.44464111 C58.83227906 16.92478453 56.31881781 19.39459216 53.80419922 21.86352539 C51.31268822 24.31980875 48.82337347 26.77825855 46.33682251 29.23956299 C44.78960579 30.7700054 43.23930501 32.29733858 41.68539429 33.82098389 C37.67981774 37.77204251 33.89891824 41.82333203 30.22915649 46.08624268 C26.8778369 49.86081687 23.26632862 53.37739895 19.67919922 56.92602539 C18.86225586 57.73918213 18.0453125 58.55233887 17.20361328 59.39013672 C13.7422488 62.83529879 10.27491331 66.27442829 6.80810547 69.71411133 C4.26304734 72.24099047 1.7210679 74.77093854 -0.82080078 77.30102539 C-1.59391602 78.06584229 -2.36703125 78.83065918 -3.16357422 79.61865234 C-7.23956327 83.67638937 -11.11590072 87.82649476 -14.86834717 92.18399048 C-17.72857511 95.42572912 -20.79137935 98.45704842 -23.85986328 101.50024414 C-24.52617767 102.16514359 -25.19249207 102.83004303 -25.8789978 103.51509094 C-27.98223248 105.61279298 -30.08893208 107.70697396 -32.19580078 109.80102539 C-33.6153054 111.21550435 -35.03457813 112.63021607 -36.45361328 114.04516602 C-39.05716413 116.64060118 -41.66202989 119.23470003 -44.26855469 121.82714844 C-44.83546021 122.3917276 -45.40236572 122.95630676 -45.9864502 123.53799438 C-47.39573463 124.93943378 -48.80937815 126.33648661 -50.22363281 127.73291016 C-52.61244407 130.1557621 -54.8810128 132.65549965 -57.14892578 135.19165039 C-65.51879575 144.42148144 -74.47912281 153.09047622 -83.32080078 161.86352539 C-86.79772681 165.31368132 -90.27119638 168.76726518 -93.74267578 172.22290039 C-94.52511658 172.99704285 -95.30755737 173.7711853 -96.1137085 174.56878662 C-99.54943868 177.98927869 -102.89839157 181.42980112 -106.06201172 185.10473633 C-109.99978345 189.67755528 -114.25197172 193.9019514 -118.53955078 198.14477539 C-119.79825989 199.39780457 -119.79825989 199.39780457 -121.08239746 200.67614746 C-124.63934598 204.21688668 -128.20226198 207.75159863 -131.76464844 211.28686523 C-134.37920243 213.88324599 -136.99068263 216.48269105 -139.60205078 219.08227539 C-140.39703979 219.86896606 -141.19202881 220.65565674 -142.0111084 221.46618652 C-146.22078136 225.65750693 -150.25827519 229.92711296 -154.11376953 234.4475708 C-156.58556815 237.27379999 -159.38169795 239.74127582 -162.16455078 242.25415039 C-163.77044011 243.96261814 -163.77044011 243.96261814 -163.47753906 245.89477539 C-162.17568113 249.08036637 -159.90484345 251.12839331 -157.46923828 253.47290039 C-156.95454987 253.98097229 -156.43986145 254.48904419 -155.90957642 255.01251221 C-154.26194146 256.63678153 -152.60452844 258.25059231 -150.94580078 259.86352539 C-149.31017394 261.46377423 -147.67681191 263.06623643 -146.04629517 264.67169189 C-145.03333184 265.66805248 -144.01728533 266.66129354 -142.99740601 267.65057373 C-140.28219639 270.31020469 -137.72934938 273.05008845 -135.24902344 275.9309082 C-131.31339878 280.47708831 -127.09384898 284.69884255 -122.82080078 288.92602539 C-122.00385742 289.73918213 -121.18691406 290.55233887 -120.34521484 291.39013672 C-117.75617407 293.96705836 -115.16391341 296.54070164 -112.57080078 299.11352539 C-109.1511736 302.50639692 -105.73497929 305.90267197 -102.32080078 309.30102539 C-101.54768555 310.06584229 -100.77457031 310.83065918 -99.97802734 311.61865234 C-96.5740334 315.00740341 -93.25708736 318.41559599 -90.12548828 322.05883789 C-85.97219608 326.88081014 -81.46548909 331.32491768 -76.94580078 335.80102539 C-76.04007324 336.70296631 -75.1343457 337.60490723 -74.20117188 338.53417969 C-71.32680509 341.39641103 -68.44933138 344.25548341 -65.57080078 347.11352539 C-61.7760474 350.88126872 -57.98498697 354.65268084 -54.19580078 358.42602539 C-53.33519043 359.2783374 -52.47458008 360.13064941 -51.58789062 361.00878906 C-47.32690698 365.25256085 -43.25129063 369.56785073 -39.33203125 374.12744141 C-35.99572206 377.88969193 -32.39425634 381.39092602 -28.82080078 384.92602539 C-27.59538574 386.1457605 -27.59538574 386.1457605 -26.34521484 387.39013672 C-23.75617407 389.96705836 -21.16391341 392.54070164 -18.57080078 395.11352539 C-15.1511736 398.50639692 -11.73497929 401.90267197 -8.32080078 405.30102539 C-7.54768555 406.06584229 -6.77457031 406.83065918 -5.97802734 407.61865234 C-1.93053895 411.64801634 1.91102821 415.77024307 5.63720703 420.09667969 C8.98692312 423.86670756 12.59523092 427.38052611 16.17919922 430.92602539 C17.40461426 432.1457605 17.40461426 432.1457605 18.65478516 433.39013672 C21.24382593 435.96705836 23.83608659 438.54070164 26.42919922 441.11352539 C29.8488264 444.50639692 33.26502071 447.90267197 36.67919922 451.30102539 C37.45231445 452.06584229 38.22542969 452.83065918 39.02197266 453.61865234 C43.13846465 457.71671094 47.0603186 461.90775862 50.84988403 466.30935669 C53.03049315 468.80042798 55.34996126 471.12921435 57.70654297 473.45336914 C58.63144531 474.37053711 59.55634766 475.28770508 60.50927734 476.23266602 C61.46146306 477.17241128 62.41394037 478.1118612 63.36669922 479.05102539 C65.27450869 480.93230681 67.17892399 482.81681732 69.08154297 484.70336914 C69.9167749 485.52699951 70.75200684 486.35062988 71.61254883 487.19921875 C73.42919922 489.11352539 73.42919922 489.11352539 73.42919922 490.11352539 C62.86762903 490.4863445 52.30765349 490.76955882 41.74081326 490.94252014 C36.8322301 491.02559553 31.92818644 491.13797068 27.0222168 491.32055664 C-7.24781019 492.56091152 -7.24781019 492.56091152 -14.91992188 487.13110352 C-18.23788635 483.97754327 -20.61332483 480.36112226 -22.98312378 476.46704102 C-25.94122761 472.08205366 -29.86229712 468.60337994 -33.66455078 464.95727539 C-35.22708279 463.40784601 -36.78697886 461.85575391 -38.34423828 460.30102539 C-39.91945672 458.73822054 -41.49497974 457.17572262 -43.07080078 455.61352539 C-46.23004699 452.48110658 -49.38577657 449.34520234 -52.53955078 446.20727539 C-53.24382202 445.51130249 -53.94809326 444.81532959 -54.67370605 444.0982666 C-57.88893288 440.8988489 -61.00120367 437.66791959 -63.95751953 434.22680664 C-68.19968253 429.30951582 -72.8029342 424.77552716 -77.41455078 420.20727539 C-78.83271728 418.79489607 -80.25088085 417.38251378 -81.66887665 415.96996307 C-84.1340321 413.51565038 -86.60250587 411.06468006 -89.07080078 408.61352539 C-92.02065709 405.68415336 -94.96987917 402.75416254 -97.91516113 399.82019043 C-99.74148507 398.00131926 -101.57005439 396.18469887 -103.40124512 394.37072754 C-107.72425754 390.06476022 -111.86871879 385.69246888 -115.84411621 381.06506348 C-119.02918513 377.46522631 -122.46643857 374.11651245 -125.88330078 370.73852539 C-126.65585205 369.96976074 -127.42840332 369.20099609 -128.22436523 368.40893555 C-130.6707426 365.97466774 -133.12034218 363.54368433 -135.57080078 361.11352539 C-138.80293766 357.90816361 -142.03162613 354.69938466 -145.25830078 351.48852539 C-146.35235229 350.40692139 -146.35235229 350.40692139 -147.46850586 349.3034668 C-150.77575083 346.01188149 -153.985109 342.69155523 -157.02978516 339.15454102 C-160.98003471 334.57245336 -165.241169 330.33578934 -169.53955078 326.08227539 C-170.79825989 324.82924622 -170.79825989 324.82924622 -172.08239746 323.55090332 C-174.74276978 320.90265453 -177.40636091 318.25768133 -180.07080078 315.61352539 C-183.58417351 312.12689938 -187.09412049 308.63687613 -190.60205078 305.14477539 C-191.39703979 304.35808472 -192.19202881 303.57139404 -193.0111084 302.76086426 C-196.53142317 299.2558967 -199.93626319 295.7373135 -203.14135742 291.94042969 C-205.40991093 289.28613255 -207.69662641 287.13378073 -210.48071289 285.02880859 C-216.97143687 279.95046131 -221.61069445 275.30303769 -222.94238281 266.91186523 C-223.48333154 260.9429289 -223.45512188 255.01858364 -223.25170898 249.03271484 C-223.13284507 245.28666356 -223.14903046 241.55827057 -223.18212891 237.81079102 C-223.06502431 218.03828287 -223.06502431 218.03828287 -216.91064453 211.91430664 C-216.07782959 211.32431885 -215.24501465 210.73433105 -214.38696289 210.12646484 C-211.20462224 207.85178789 -209.0297926 205.299804 -206.50953674 202.3334198 C-203.00093587 198.31599627 -199.17239998 194.61413192 -195.38330078 190.86352539 C-194.52196533 190.00597656 -193.66062988 189.14842773 -192.77319336 188.26489258 C-189.12066095 184.628576 -185.46216443 180.99828168 -181.80419922 177.36743164 C-179.12014922 174.70154942 -176.43916837 172.03260729 -173.75830078 169.36352539 C-172.94143799 168.55496094 -172.1245752 167.74639648 -171.28295898 166.91333008 C-167.75966245 163.40499834 -164.3145137 159.88330889 -161.07080078 156.11352539 C-157.07057316 151.46453441 -152.74016628 147.17613039 -148.38330078 142.86352539 C-147.52196533 142.00597656 -146.66062988 141.14842773 -145.77319336 140.26489258 C-142.12066095 136.628576 -138.46216443 132.99828168 -134.80419922 129.36743164 C-132.12014922 126.70154942 -129.43916837 124.03260729 -126.75830078 121.36352539 C-125.94143799 120.55496094 -125.1245752 119.74639648 -124.28295898 118.91333008 C-120.09582982 114.74398526 -116.09753293 110.49309241 -112.2444458 106.01425171 C-109.46440442 102.85701242 -106.48676058 99.90632757 -103.50048828 96.94555664 C-102.85636993 96.30285324 -102.21225159 95.66014984 -101.5486145 94.99797058 C-99.51671073 92.97159624 -97.48134221 90.9487449 -95.44580078 88.92602539 C-94.07447301 87.55972377 -92.70337741 86.19318909 -91.33251953 84.82641602 C-88.81686065 82.3188697 -86.29988255 79.81266487 -83.78125 77.30810547 C-83.23174683 76.76092865 -82.68224365 76.21375183 -82.11608887 75.6499939 C-80.7256392 74.26748008 -79.33086085 72.88932307 -77.93554688 71.51171875 C-75.52029579 69.06230605 -73.22460717 66.53562096 -70.93017578 63.97290039 C-62.89413026 55.11452575 -54.31012 46.78311032 -45.82080078 38.36352539 C-42.53136481 35.10087948 -39.2454019 31.83479078 -35.96142578 28.56665039 C-35.22273254 27.83625549 -34.48403931 27.1058606 -33.72296143 26.35333252 C-29.67808426 22.32741445 -25.81338751 18.21029444 -22.10194397 13.87419128 C-19.76581108 11.18786545 -17.27933422 8.69000699 -14.75830078 6.17602539 C-14.28199219 5.69584961 -13.80568359 5.21567383 -13.31494141 4.72094727 C-8.81517057 0.23383401 -6.17456474 -0.02996384 0 0 Z " fill="#1C86EE" transform="translate(389.57080078125,385.886474609375)"/>
<path d="M0 0 C7.87702113 6.75173239 7.87702113 6.75173239 10.98828125 9.85888672 C11.68590576 10.55335907 12.38353027 11.24783142 13.10229492 11.96334839 C13.8316626 12.6947403 14.56103027 13.4261322 15.3125 14.1796875 C16.08505127 14.95128204 16.85760254 15.72287659 17.65356445 16.51785278 C19.27840984 18.14202108 20.90200676 19.76743923 22.52441406 21.39404297 C24.98912254 23.86409894 27.45911155 26.32878307 29.9296875 28.79296875 C31.51594564 30.37988789 33.10189343 31.96711732 34.6875 33.5546875 C35.41686768 34.28203094 36.14623535 35.00937439 36.89770508 35.75875854 C40.88495997 39.76402953 44.70417626 43.85430001 48.37036133 48.15628052 C49.96481613 50.09424835 49.96481613 50.09424835 52.17253113 51.57987976 C55.14201037 55.51236634 54.53115567 59.65211131 54.4699707 64.4440918 C54.4721611 65.5062088 54.4743515 66.56832581 54.47660828 67.66262817 C54.47892088 71.17514116 54.45265825 74.68681745 54.42578125 78.19921875 C54.42085928 80.63491042 54.41755914 83.07060586 54.41581726 85.50630188 C54.40817412 90.60987428 54.38760011 95.71316655 54.35668945 100.81665039 C54.31705155 107.37432948 54.2990714 113.93182639 54.28938007 120.48961163 C54.27943025 126.72617226 54.25952169 132.96268787 54.23828125 139.19921875 C54.2348855 140.39743444 54.23148975 141.59565014 54.2279911 142.8301754 C54.21647392 146.20153612 54.19796364 149.57277822 54.17700195 152.9440918 C54.17431305 153.95344284 54.17162415 154.96279388 54.16885376 156.00273132 C54.16169846 156.91546814 54.15454315 157.82820496 54.14717102 158.76860046 C54.1407608 159.96513009 54.1407608 159.96513009 54.13422108 161.18583202 C54 163 54 163 53 164 C35.40588669 165.59946485 17.66166124 164.42051574 0 164 C0 109.88 0 55.76 0 0 Z " fill="#1C86EE" transform="translate(168,712)"/>
<path d="M0 0 C1.03777588 -0.00315216 2.07555176 -0.00630432 3.14477539 -0.009552 C4.83848267 -0.00651566 4.83848267 -0.00651566 6.56640625 -0.00341797 C7.71681396 -0.00437469 8.86722168 -0.00533142 10.05249023 -0.00631714 C12.49039769 -0.00699916 14.92830695 -0.00514337 17.36621094 -0.00097656 C21.11267143 0.00437136 24.85901202 -0.00092086 28.60546875 -0.00732422 C30.96744818 -0.00666344 33.32942754 -0.00538229 35.69140625 -0.00341797 C36.82054443 -0.0054422 37.94968262 -0.00746643 39.11303711 -0.009552 C40.15081299 -0.00639984 41.18858887 -0.00324768 42.2578125 0 C43.1763501 0.00079559 44.0948877 0.00159119 45.04125977 0.00241089 C47.12890625 0.12939453 47.12890625 0.12939453 48.12890625 1.12939453 C48.23944912 2.51495151 48.28180149 3.90602928 48.29626465 5.2959137 C48.30775543 6.19445572 48.31924622 7.09299774 48.33108521 8.01876831 C48.34218826 9.5093425 48.34218826 9.5093425 48.35351562 11.0300293 C48.37060074 12.59105125 48.37060074 12.59105125 48.38803101 14.18360901 C48.49881681 25.09134861 48.54614274 35.99977501 48.58886719 46.90795898 C48.61113287 52.08505443 48.65288327 57.26142798 48.71191406 62.43823242 C48.78299629 68.68347281 48.8196997 74.92803421 48.83198547 81.17365837 C48.84238933 83.5535094 48.86482096 85.93333978 48.89958191 88.31295967 C48.94580477 91.65044193 48.94778512 94.98526642 48.93945312 98.32299805 C48.97484695 99.79231781 48.97484695 99.79231781 49.01095581 101.2913208 C48.93366694 107.7038712 47.45132218 110.91905916 42.91356659 115.46786404 C42.32462868 116.0161691 41.73569077 116.56447416 41.12890625 117.12939453 C40.16442221 118.12201028 39.20202169 119.1166568 38.2421875 120.11376953 C37.31792969 121.02642578 36.39367187 121.93908203 35.44140625 122.87939453 C34.93520752 123.38180664 34.42900879 123.88421875 33.9074707 124.40185547 C31.78430976 126.50897403 29.65509783 128.60993666 27.52636719 130.71142578 C22.08077037 136.09358524 16.70069737 141.46962237 11.72509766 147.29736328 C8.89572587 150.54477929 5.85919333 153.58333915 2.81640625 156.62939453 C2.19701172 157.26103516 1.57761719 157.89267578 0.93945312 158.54345703 C0.0490332 159.43677734 0.0490332 159.43677734 -0.859375 160.34814453 C-1.39087158 160.88375 -1.92236816 161.41935547 -2.4699707 161.97119141 C-3.87109375 163.12939453 -3.87109375 163.12939453 -5.87109375 163.12939453 C-5.89442079 142.02449085 -5.91207196 120.91958928 -5.92290592 99.81467533 C-5.92806929 90.0160129 -5.93511277 80.21735847 -5.9465332 70.41870117 C-5.95647878 61.88140798 -5.96294688 53.34412058 -5.96518224 44.80682176 C-5.96648957 40.28349525 -5.96957677 35.76018531 -5.97682381 31.23686409 C-5.98358204 26.98441521 -5.98571112 22.7319898 -5.98420143 18.47953606 C-5.98447785 16.91416166 -5.98648414 15.34878652 -5.99029922 13.78341675 C-5.99523342 11.6555136 -5.99409308 9.52770052 -5.99134827 7.39979553 C-5.99227006 6.20607362 -5.99319185 5.0123517 -5.99414158 3.7824564 C-5.78488771 -0.72931331 -4.04624702 0.00350467 0 0 Z " fill="#1C86EE" transform="translate(173.87109375,385.87060546875)"/>
</svg>
